<?xml version="1.0" encoding="UTF-8"?>
<svg version="1.1" xmlns="http://www.w3.org/2000/svg" width="64" height="64">
<path d="M0 0 C1.32 0 2.64 0 4 0 C4 0.66 4 1.32 4 2 C3.34 2 2.68 2 2 2 C2 3.32 2 4.64 2 6 C2.66 6 3.32 6 4 6 C4 6.66 4 7.32 4 8 C4.66 8 5.32 8 6 8 C6 7.34 6 6.68 6 6 C7.98 6 9.96 6 12 6 C12 6.66 12 7.32 12 8 C12.66 8 13.32 8 14 8 C14 8.66 14 9.32 14 10 C14.58394531 10.226875 15.16789062 10.45375 15.76953125 10.6875 C18.61034389 12.35915157 19.85923012 14.27147576 21.6875 17 C22.28949219 17.886875 22.89148437 18.77375 23.51171875 19.6875 C25 22 25 22 26 24 C29.02934491 24.65772428 29.02934491 24.65772428 32 25 C32 27.64 32 30.28 32 33 C31.01 33 30.02 33 29 33 C28.67 34.32 28.34 35.64 28 37 C26.68 36.67 25.36 36.34 24 36 C23.9175 36.9075 23.835 37.815 23.75 38.75 C22.88498223 42.49841035 22.13157632 43.79943285 19 46 C15.41889189 46.52224493 13.70110743 46.44280469 10.625 44.5 C10.08875 44.005 9.5525 43.51 9 43 C9 44.32 9 45.64 9 47 C9 49 9 51 9 53 C8.34 53 7.68 53 7 53 C7 53.66 7 54.32 7 55 C6.34 55 5.68 55 5 55 C5 55.66 5 56.32 5 57 C4.34 57 3.68 57 3 57 C3 53.7 3 50.4 3 47 C1.68 47 0.36 47 -1 47 C-1 45.68 -1 44.36 -1 43 C-1.66 43 -2.32 43 -3 43 C-3 42.34 -3 41.68 -3 41 C-3.928125 41.165 -4.85625 41.33 -5.8125 41.5 C-9 42 -9 42 -12 42 C-13 41 -13 41 -13.09765625 39.15234375 C-13.04882812 36.07617188 -13.04882812 36.07617188 -13 33 C-14.65 32.67 -16.3 32.34 -18 32 C-18 31.34 -18 30.68 -18 30 C-18.66 30 -19.32 30 -20 30 C-20 29.34 -20 28.68 -20 28 C-21.32 27.34 -22.64 26.68 -24 26 C-23.67 24.68 -23.34 23.36 -23 22 C-22.34 22.66 -21.68 23.32 -21 24 C-20.67 23.34 -20.34 22.68 -20 22 C-20.66 22 -21.32 22 -22 22 C-22 21.34 -22 20.68 -22 20 C-20.68 20 -19.36 20 -18 20 C-18 20.66 -18 21.32 -18 22 C-17.34 22 -16.68 22 -16 22 C-16 21.34 -16 20.68 -16 20 C-15.01 19.67 -14.02 19.34 -13 19 C-11.32932867 17.00334402 -9.66247014 15.00348966 -8 13 C-7.34 13 -6.68 13 -6 13 C-6 11.35 -6 9.7 -6 8 C-5.34 8 -4.68 8 -4 8 C-4 7.34 -4 6.68 -4 6 C-3.34 6 -2.68 6 -2 6 C-2 4.68 -2 3.36 -2 2 C-1.34 2 -0.68 2 0 2 C0 1.34 0 0.68 0 0 Z M10 8 C10.66 8.66 11.32 9.32 12 10 C12 9.34 12 8.68 12 8 C11.34 8 10.68 8 10 8 Z M-1 41 C-1 41.66 -1 42.32 -1 43 C-0.34 43 0.32 43 1 43 C1 42.34 1 41.68 1 41 C0.34 41 -0.32 41 -1 41 Z M3 41 C3 41.66 3 42.32 3 43 C3.66 43 4.32 43 5 43 C5 42.34 5 41.68 5 41 C4.34 41 3.68 41 3 41 Z M5 51 C5 51.66 5 52.32 5 53 C5.66 53 6.32 53 7 53 C7 52.34 7 51.68 7 51 C6.34 51 5.68 51 5 51 Z " fill="#908F8F" transform="translate(28,3)"/>
<path d="M0 0 C0.99 0 1.98 0 3 0 C3.33 1.98 3.66 3.96 4 6 C4.99 6 5.98 6 7 6 C7 6.99 7 7.98 7 9 C7.66 9 8.32 9 9 9 C9.33 10.32 9.66 11.64 10 13 C12.97 12.34 15.94 11.68 19 11 C19.92844389 15.33273814 19.92844389 18.66726186 19 23 C16.36 22.34 13.72 21.68 11 21 C9.91915479 24.63619656 9.91915479 24.63619656 10 27 C10.99 27 11.98 27 13 27 C13 27.66 13 28.32 13 29 C14.65 29.66 16.3 30.32 18 31 C18 31.99 18 32.98 18 34 C14.62984112 34.84253972 12.29217351 35.20713029 9 34 C8.01 33.34 7.02 32.68 6 32 C6 33.32 6 34.64 6 36 C6 38 6 40 6 42 C5.34 42 4.68 42 4 42 C4 42.66 4 43.32 4 44 C3.34 44 2.68 44 2 44 C2 44.66 2 45.32 2 46 C1.34 46 0.68 46 0 46 C0 42.7 0 39.4 0 36 C-1.32 36 -2.64 36 -4 36 C-4 34.68 -4 33.36 -4 32 C-4.66 32 -5.32 32 -6 32 C-6 31.34 -6 30.68 -6 30 C-6.66 29.67 -7.32 29.34 -8 29 C-6.02 28.67 -4.04 28.34 -2 28 C-2 27.34 -2 26.68 -2 26 C-1 25 0 24 1 23 C2.17574711 20.90010348 2.17574711 20.90010348 3 19 C2.01 18.67 1.02 18.34 0 18 C0 16.68 0 15.36 0 14 C0.66 13.67 1.32 13.34 2 13 C1.34 12.01 0.68 11.02 0 10 C-0.44921875 7.7734375 -0.44921875 7.7734375 -0.6875 5.375 C-0.81705078 4.18003906 -0.81705078 4.18003906 -0.94921875 2.9609375 C-0.96597656 2.31382813 -0.98273437 1.66671875 -1 1 C-0.67 0.67 -0.34 0.34 0 0 Z M-4 30 C-4 30.66 -4 31.32 -4 32 C-3.34 32 -2.68 32 -2 32 C-2 31.34 -2 30.68 -2 30 C-2.66 30 -3.32 30 -4 30 Z M0 30 C0 30.66 0 31.32 0 32 C0.66 32 1.32 32 2 32 C2 31.34 2 30.68 2 30 C1.34 30 0.68 30 0 30 Z M2 40 C2 40.66 2 41.32 2 42 C2.66 42 3.32 42 4 42 C4 41.34 4 40.68 4 40 C3.34 40 2.68 40 2 40 Z " fill="#D99A1C" transform="translate(31,14)"/>
<path d="M0 0 C1.32 0 2.64 0 4 0 C4 0.66 4 1.32 4 2 C3.34 2 2.68 2 2 2 C2 3.32 2 4.64 2 6 C2.66 6 3.32 6 4 6 C4 6.66 4 7.32 4 8 C4.66 8 5.32 8 6 8 C6 7.34 6 6.68 6 6 C7.98 6 9.96 6 12 6 C12 6.66 12 7.32 12 8 C12.66 8 13.32 8 14 8 C14 8.66 14 9.32 14 10 C14.58394531 10.226875 15.16789062 10.45375 15.76953125 10.6875 C18.61034389 12.35915157 19.85923012 14.27147576 21.6875 17 C22.28949219 17.886875 22.89148438 18.77375 23.51171875 19.6875 C25 22 25 22 26 24 C29.02934491 24.65772428 29.02934491 24.65772428 32 25 C32 27.64 32 30.28 32 33 C31.01 33 30.02 33 29 33 C28.67 34.32 28.34 35.64 28 37 C26.68 36.67 25.36 36.34 24 36 C23.87625 36.969375 23.7525 37.93875 23.625 38.9375 C23.41875 39.948125 23.2125 40.95875 23 42 C22.01 42.495 22.01 42.495 21 43 C18.375 41.6875 18.375 41.6875 16 40 C16 39.34 16 38.68 16 38 C15.01 38 14.02 38 13 38 C12.375 35.625 12.375 35.625 12 33 C12.66 32.34 13.32 31.68 14 31 C16.64 31.99 19.28 32.98 22 34 C22.12469099 28.42169984 22.12469099 28.42169984 21 23 C17.04 23.495 17.04 23.495 13 24 C12.67 22.68 12.34 21.36 12 20 C11.34 20 10.68 20 10 20 C10 19.01 10 18.02 10 17 C9.01 17 8.02 17 7 17 C6.67 15.02 6.34 13.04 6 11 C1.83861737 10.91840426 -1.9472484 11.01751476 -6 12 C-6 10.68 -6 9.36 -6 8 C-5.34 8 -4.68 8 -4 8 C-4 7.34 -4 6.68 -4 6 C-3.34 6 -2.68 6 -2 6 C-2 4.68 -2 3.36 -2 2 C-1.34 2 -0.68 2 0 2 C0 1.34 0 0.68 0 0 Z M10 8 C10.66 8.66 11.32 9.32 12 10 C12 9.34 12 8.68 12 8 C11.34 8 10.68 8 10 8 Z " fill="#2A2820" transform="translate(28,3)"/>
<path d="M0 0 C1.32 0 2.64 0 4 0 C4 0.66 4 1.32 4 2 C4.66 2 5.32 2 6 2 C6 1.34 6 0.68 6 0 C7.32 0 8.64 0 10 0 C10 0.66 10 1.32 10 2 C13.63 2.33 17.26 2.66 21 3 C20.01 5.64 19.02 8.28 18 11 C13.38 11.33 8.76 11.66 4 12 C4 11.34 4 10.68 4 10 C3.34 10 2.68 10 2 10 C2 9.34 2 8.68 2 8 C0.68 7.34 -0.64 6.68 -2 6 C-1.67 4.68 -1.34 3.36 -1 2 C-0.34 2.66 0.32 3.32 1 4 C1.33 3.34 1.66 2.68 2 2 C1.34 2 0.68 2 0 2 C0 1.34 0 0.68 0 0 Z " fill="#261516" transform="translate(6,23)"/>
<path d="M0 0 C0.99 0 1.98 0 3 0 C3.33 1.98 3.66 3.96 4 6 C4.99 6 5.98 6 7 6 C7 6.99 7 7.98 7 9 C7.66 9 8.32 9 9 9 C9.061875 9.61875 9.12375 10.2375 9.1875 10.875 C9.828919 13.27761141 9.828919 13.27761141 12.5625 14.25 C13.366875 14.4975 14.17125 14.745 15 15 C15 15.33 15 15.66 15 16 C12.69 16.33 10.38 16.66 8 17 C7.67 18.65 7.34 20.3 7 22 C6.01 22.33 5.02 22.66 4 23 C3.896875 22.360625 3.79375 21.72125 3.6875 21.0625 C3.3471875 20.0415625 3.3471875 20.0415625 3 19 C2.01 18.67 1.02 18.34 0 18 C0 16.68 0 15.36 0 14 C0.66 13.67 1.32 13.34 2 13 C1.34 12.01 0.68 11.02 0 10 C-0.44921875 7.7734375 -0.44921875 7.7734375 -0.6875 5.375 C-0.77386719 4.57835937 -0.86023438 3.78171875 -0.94921875 2.9609375 C-0.96597656 2.31382813 -0.98273437 1.66671875 -1 1 C-0.67 0.67 -0.34 0.34 0 0 Z " fill="#B37807" transform="translate(31,14)"/>
<path d="M0 0 C2.02045442 0.60183749 4.02111039 1.27306096 6 2 C6.33 2.66 6.66 3.32 7 4 C9.02463255 4.65213292 9.02463255 4.65213292 11 5 C10.67 5.66 10.34 6.32 10 7 C9.34 6.67 8.68 6.34 8 6 C8 7.32 8 8.64 8 10 C8 12 8 14 8 16 C7.34 16 6.68 16 6 16 C6 16.66 6 17.32 6 18 C5.34 18 4.68 18 4 18 C4 18.66 4 19.32 4 20 C3.34 20 2.68 20 2 20 C2 16.7 2 13.4 2 10 C0.68 10 -0.64 10 -2 10 C-2 8.68 -2 7.36 -2 6 C-2.66 6 -3.32 6 -4 6 C-4 5.34 -4 4.68 -4 4 C-4.66 3.67 -5.32 3.34 -6 3 C-4.02 2.67 -2.04 2.34 0 2 C0 1.34 0 0.68 0 0 Z M-2 4 C-2 4.66 -2 5.32 -2 6 C-1.34 6 -0.68 6 0 6 C0 5.34 0 4.68 0 4 C-0.66 4 -1.32 4 -2 4 Z M2 4 C2 4.66 2 5.32 2 6 C2.66 6 3.32 6 4 6 C4 5.34 4 4.68 4 4 C3.34 4 2.68 4 2 4 Z M4 14 C4 14.66 4 15.32 4 16 C4.66 16 5.32 16 6 16 C6 15.34 6 14.68 6 14 C5.34 14 4.68 14 4 14 Z " fill="#2B1F20" transform="translate(29,40)"/>
<path d="M0 0 C1.32 0 2.64 0 4 0 C4 0.66 4 1.32 4 2 C3.34 2 2.68 2 2 2 C2 3.32 2 4.64 2 6 C2.66 6 3.32 6 4 6 C4 6.66 4 7.32 4 8 C4.66 8 5.32 8 6 8 C6 7.34 6 6.68 6 6 C7.98 6 9.96 6 12 6 C11.67 7.65 11.34 9.3 11 11 C10.19175781 10.98839844 9.38351563 10.97679687 8.55078125 10.96484375 C6.94783203 10.95130859 6.94783203 10.95130859 5.3125 10.9375 C4.25675781 10.92589844 3.20101563 10.91429687 2.11328125 10.90234375 C-0.72410262 10.99134575 -3.2438919 11.35060162 -6 12 C-6 10.68 -6 9.36 -6 8 C-5.34 8 -4.68 8 -4 8 C-4 7.34 -4 6.68 -4 6 C-3.34 6 -2.68 6 -2 6 C-2 4.68 -2 3.36 -2 2 C-1.34 2 -0.68 2 0 2 C0 1.34 0 0.68 0 0 Z " fill="#22171A" transform="translate(28,3)"/>
<path d="M0 0 C5.63336356 0.38192295 8.90239818 0.77822843 13 5 C13.33 5.99 13.66 6.98 14 8 C9.375 11 9.375 11 6 11 C6 10.34 6 9.68 6 9 C5.34 9 4.68 9 4 9 C4 8.01 4 7.02 4 6 C3.01 6 2.02 6 1 6 C0.67 4.02 0.34 2.04 0 0 Z " fill="#5BD6C2" transform="translate(34,14)"/>
<path d="M0 0 C1.32 0 2.64 0 4 0 C4 0.66 4 1.32 4 2 C4.66 2 5.32 2 6 2 C6 1.34 6 0.68 6 0 C7.32 0 8.64 0 10 0 C10 0.66 10 1.32 10 2 C10.66 2 11.32 2 12 2 C12 3.32 12 4.64 12 6 C10.02 6.33 8.04 6.66 6 7 C6.99 8.485 6.99 8.485 8 10 C6.02 10.99 6.02 10.99 4 12 C4 11.34 4 10.68 4 10 C3.34 10 2.68 10 2 10 C2 9.34 2 8.68 2 8 C0.68 7.34 -0.64 6.68 -2 6 C-1.67 4.68 -1.34 3.36 -1 2 C-0.34 2.66 0.32 3.32 1 4 C1.33 3.34 1.66 2.68 2 2 C1.34 2 0.68 2 0 2 C0 1.34 0 0.68 0 0 Z " fill="#E71F23" transform="translate(6,23)"/>
<path d="M0 0 C2.31 0.33 4.62 0.66 7 1 C7 3.64 7 6.28 7 9 C4.69 8.67 2.38 8.34 0 8 C0 5.36 0 2.72 0 0 Z " fill="#FEFC02" transform="translate(53,27)"/>
<path d="M0 0 C1.125 5.625 1.125 5.625 0 9 C-2.64 8.34 -5.28 7.68 -8 7 C-7.67 5.35 -7.34 3.7 -7 2 C-1.125 0 -1.125 0 0 0 Z " fill="#F9F900" transform="translate(50,25)"/>
<path d="M0 0 C2.64 0.33 5.28 0.66 8 1 C6.84826645 3.46800047 5.95216435 5.04783565 4 7 C3.01 6.67 2.02 6.34 1 6 C0.67 4.02 0.34 2.04 0 0 Z " fill="#6269F3" transform="translate(34,14)"/>
<path d="M0 0 C1.32 0.66 2.64 1.32 4 2 C3.625 4.4375 3.625 4.4375 3 7 C2.01 7.495 2.01 7.495 1 8 C-1.125 7.0625 -1.125 7.0625 -3 6 C-1.125 1.125 -1.125 1.125 0 0 Z " fill="#D28C02" transform="translate(34,35)"/>
<path d="M0 0 C0.33 0.66 0.66 1.32 1 2 C2.9914056 2.38133299 4.99279077 2.71325582 7 3 C7.66 3.33 8.32 3.66 9 4 C9 4.99 9 5.98 9 7 C6.03 6.01 3.06 5.02 0 4 C0 2.68 0 1.36 0 0 Z " fill="#DD0C18" transform="translate(41,30)"/>
<path d="M0 0 C0.90492187 0.02320312 1.80984375 0.04640625 2.7421875 0.0703125 C4.10730469 0.09738281 4.10730469 0.09738281 5.5 0.125 C6.19867188 0.14820312 6.89734375 0.17140625 7.6171875 0.1953125 C7.6171875 0.5253125 7.6171875 0.8553125 7.6171875 1.1953125 C5.6371875 1.5253125 3.6571875 1.8553125 1.6171875 2.1953125 C2.6071875 3.6803125 2.6071875 3.6803125 3.6171875 5.1953125 C1.6371875 6.1853125 1.6371875 6.1853125 -0.3828125 7.1953125 C-0.3828125 6.5353125 -0.3828125 5.8753125 -0.3828125 5.1953125 C-1.0428125 5.1953125 -1.7028125 5.1953125 -2.3828125 5.1953125 C-2.3828125 4.5353125 -2.3828125 3.8753125 -2.3828125 3.1953125 C-3.0428125 2.8653125 -3.7028125 2.5353125 -4.3828125 2.1953125 C-2.3828125 0.1953125 -2.3828125 0.1953125 0 0 Z " fill="#E42A2F" transform="translate(10.3828125,27.8046875)"/>
<path d="M0 0 C1.32 0.66 2.64 1.32 4 2 C1.47211993 4.79872437 -0.20411134 6.45773019 -4 7 C-2.92598892 4.08482708 -2.22189824 2.22189824 0 0 Z " fill="#9BE3FB" transform="translate(42,16)"/>
<path d="M0 0 C0.33 0.99 0.66 1.98 1 3 C-2.37097383 4.49821059 -4.20442119 5 -8 5 C-8 4.34 -8 3.68 -8 3 C-2.25 0 -2.25 0 0 0 Z " fill="#01F500" transform="translate(49,22)"/>
<path d="M0 0 C0.66 0.33 1.32 0.66 2 1 C1.67 3.64 1.34 6.28 1 9 C0.01 9 -0.98 9 -2 9 C-1.125 1.125 -1.125 1.125 0 0 Z " fill="#E7A00F" transform="translate(39,30)"/>
<path d="M0 0 C0.33 1.32 0.66 2.64 1 4 C-1.64 4 -4.28 4 -7 4 C-4.82575883 1.49962266 -3.26954202 0.56371414 0 0 Z " fill="#FBAF5D" transform="translate(49,25)"/>
<path d="M0 0 C1.32 0 2.64 0 4 0 C3.67 1.65 3.34 3.3 3 5 C1.68 4.67 0.36 4.34 -1 4 C-0.67 2.68 -0.34 1.36 0 0 Z " fill="#F70519" transform="translate(53,35)"/>
<path d="M0 0 C0.66 0.66 1.32 1.32 2 2 C1.34 2 0.68 2 0 2 C0 1.34 0 0.68 0 0 Z " fill="#FFFFFF" transform="translate(37,48)"/>
<path d="" fill="#FFFFFF" transform="translate(0,0)"/>
<path d="" fill="#FFFFFF" transform="translate(0,0)"/>
<path d="" fill="#ED1F24" transform="translate(0,0)"/>
</svg>
